<?xml version="1.0" encoding="utf-8"?>
<!-- Generator: Adobe Illustrator 23.0.4, SVG Export Plug-In . SVG Version: 6.00 Build 0)  -->
<svg version="1.1" id="Layer_1" xmlns="http://www.w3.org/2000/svg" xmlns:xlink="http://www.w3.org/1999/xlink" x="0px" y="0px"
	 viewBox="0 0 1920 704" style="enable-background:new 0 0 1920 704;" xml:space="preserve">
<style type="text/css">
	.st0{fill:#7300FF;}
	.st1{fill:#FFFFFF;}
</style>
<rect class="st0" width="1920" height="704"/>
<g>
	<path class="st1" d="M389.7,337.5c15.5,0,27.1-3.4,34.9-10.3c7.8-6.8,11.6-16.9,11.6-30c0-13.2-3.9-23.3-11.6-30.4
		c-7.8-7.1-19.4-10.7-34.9-10.7h-53.9v81.4H389.7z M284,481.2c-1.8-1.8-2.7-4-2.7-6.6V222.4c0-2.8,0.8-5.2,2.5-7
		c1.7-1.8,3.9-2.7,6.8-2.7h100.4c31.8,0,56.6,7.4,74.6,22.1c18,14.7,26.9,35.7,26.9,62.8c0,18.9-4.5,34.7-13.6,47.5
		c-9,12.8-21.7,22-38,27.7l56.2,98.8c0.8,1.5,1.2,3,1.2,4.3c0,2.3-0.8,4.3-2.5,5.8c-1.7,1.5-3.6,2.3-5.6,2.3h-35.7
		c-4.1,0-7.4-1-9.7-2.9c-2.3-1.9-4.4-4.5-6.2-7.6L389,381.7h-53.1v93c0,2.6-0.9,4.8-2.7,6.6c-1.8,1.8-4.1,2.7-7,2.7h-35.7
		C288,484,285.8,483.1,284,481.2"/>
	<path class="st1" d="M611.5,384.8h87.6l-43.8-119.4L611.5,384.8z M528.6,481.6c-1.6-1.6-2.3-3.5-2.3-5.8l0.8-3.5l93-249.9
		c2.6-6.5,7.2-9.7,13.9-9.7h42.6c6.7,0,11.4,3.2,14,9.7l93,249.9l0.8,3.5c0,2.3-0.8,4.3-2.5,5.8c-1.7,1.5-3.6,2.3-5.6,2.3h-34.5
		c-5.4,0-9.2-2.5-11.2-7.4l-17.8-46.9H597.9l-17.8,46.9c-2.1,4.9-5.8,7.4-11.2,7.4h-34.5C532,484,530.1,483.2,528.6,481.6"/>
	<path class="st1" d="M922.6,340.6c15,0,26.4-3.5,34.3-10.7c7.9-7.1,11.8-17.5,11.8-31.2c0-13.4-3.8-23.9-11.4-31.4
		c-7.6-7.5-19.2-11.2-34.7-11.2h-55.8v84.5H922.6z M814.1,481.2c-1.8-1.8-2.7-4-2.7-6.6V222.4c0-2.8,0.8-5.2,2.5-7
		c1.7-1.8,3.9-2.7,6.8-2.7h103.9c31.3,0,55.8,7.4,73.6,22.1c17.8,14.7,26.7,36.2,26.7,64.3c0,27.9-8.9,49-26.7,63.4
		c-17.8,14.3-42.4,21.5-73.6,21.5h-57v90.7c0,2.8-0.9,5.1-2.7,6.8c-1.8,1.7-4.1,2.5-7,2.5h-37.2C818.1,484,815.9,483.1,814.1,481.2"
		/>
	<path class="st1" d="M1469.1,477.4c-16.5-7-29.1-16.1-37.6-27.5c-8.5-11.4-13-23.8-13.6-37.2c0-2.1,0.8-3.9,2.3-5.6
		c1.5-1.7,3.5-2.5,5.8-2.5h35.3c2.8,0,5.2,0.7,7,1.9c1.8,1.3,3.5,3.1,5,5.4c2.6,8.8,8.5,16.1,17.6,22.1c9.2,5.9,21.8,8.9,37.8,8.9
		c18.1,0,31.7-3,40.9-9.1c9.2-6.1,13.8-14.4,13.8-25c0-7-2.3-12.8-7-17.4c-4.7-4.6-11.7-8.7-21.1-12.2c-9.4-3.5-23.4-7.7-42-12.6
		c-30.5-7.2-52.8-16.8-67-28.7c-14.2-11.9-21.3-28.9-21.3-51.2c0-15,4.1-28.4,12.4-40.1c8.3-11.8,20.1-21,35.5-27.7
		c15.4-6.7,33.3-10.1,53.7-10.1c21.4,0,40,3.7,55.6,11.2c15.6,7.5,27.5,16.9,35.7,28.1c8.1,11.2,12.5,22.4,13,33.5
		c0,2.1-0.8,3.9-2.3,5.6c-1.6,1.7-3.5,2.5-5.8,2.5h-36.8c-5.7,0-9.6-2.3-11.6-7c-1.3-8.3-6.3-15.2-15.1-20.7
		c-8.8-5.5-19.6-8.3-32.6-8.3c-14.2,0-25.4,2.7-33.5,8.1c-8.1,5.4-12.2,13.3-12.2,23.6c0,7,2.1,12.8,6.2,17.4
		c4.1,4.6,10.6,8.7,19.4,12.2c8.8,3.5,21.6,7.4,38.4,11.8c23,5.2,41.3,11,54.8,17.4c13.6,6.5,23.6,14.6,30,24.4
		c6.5,9.8,9.7,22.3,9.7,37.6c0,16.8-4.6,31.3-13.8,43.6c-9.2,12.3-22.1,21.6-38.7,28.1c-16.7,6.5-36,9.7-57.9,9.7
		C1505.5,487.8,1485.7,484.3,1469.1,477.4"/>
	<path class="st1" d="M1067.1,474.7c0,0.4,0.1,0.8,0.1,28.8l55.7-55.7V256.3l-55.7-55.7c0,20.7-0.1,21-0.1,21.4V474.7z"/>
	<path class="st1" d="M1386.6,318.1c-1.6-70.3-40.4-105.4-116.6-105.4h-94.6c-2.8,0-5.1,0.9-6.8,2.7c-1.7,1.8-2.5,4.1-2.5,7v75.8
		l54.6,53.9v-94.4h47.3c21.7,0,37.6,5,47.7,14.9c10.1,9.9,15.4,25.5,15.9,46.7c0.5,15,0.8,24.5,0.8,28.7c0,3.9-0.3,13.6-0.8,29.1
		c-0.5,22.2-5.6,38.1-15.1,47.7c-9.6,9.6-25.1,14.3-46.5,14.3h-49.2v-87l-54.6,53.9v68.8c0,2.6,0.9,4.8,2.7,6.6
		c1.8,1.8,4,2.7,6.6,2.7h96.5c38.5,0,67-8.6,85.4-25.8c18.5-17.2,28.2-43.8,29.3-80c0.5-15,0.8-24.9,0.8-29.8
		C1387.4,343.2,1387.1,333.1,1386.6,318.1"/>
</g>
</svg>
